ply
format ascii 1.0
element vertex 21
property float x
property float y
property float z
property uchar red
property uchar green
property uchar blue
end_header
-63.01530327357546 12.88830652156854 169.6184171980035 255 255 255
41.532948534554066 4.318938647347778 356.8172902522348 255 255 255
-6.5450667273447465 -2.419877822786283 75.28966688828743 255 255 255
-50.98811134770442 -4.090784636162363 183.93733809146843 255 255 255
-6.305604650863581 -32.188316553285425 460.87884885185673 255 255 255
62.67337729100756 -265.2491054362698 -765.023654407762 255 255 255
-15.641553461837391 -6.355016009972131 78.87257570211457 255 255 255
-32.07747294651128 -13.829225479324279 144.8181237820582 255 255 255
-13.582784521890394 25.99505313217351 119.44671933063881 255 255 255
-24.446102666749827 -3.7142559725039344 82.36373135118711 255 255 255
8.569112082182677 78.33036582479116 -209.64476106280966 255 255 255
-55.62939380268751 -12.32448615795754 144.8202014841222 255 255 255
229.67189050511652 -315.9130392810635 2455.593982508103 255 255 255
-28.53106419609606 -35.72891468547041 247.54175286839285 255 255 255
-62.035035364416295 32.33218694206385 206.7873082378639 255 255 255
-15.520307400327557 1.4752856075547316 113.87140198293724 255 255 255
-61.79665679071949 32.15683553831152 206.5540786027018 255 255 255
-73.64803446489795 5.751330464039218 361.1346395790433 255 255 255
-30.913662852235767 -2.4300034198025258 122.147994498844 255 255 255
-26.579417592943567 -4.983653121263152 107.36308977000016 255 255 255
-26.723365694185162 -5.03029448164883 107.59683088317999 255 255 255
