ply
format ascii 1.0
element vertex 700
property float x
property float y
property float z
property uchar red
property uchar green
property uchar blue
end_header
-5.280018988626492 0.3476519478184541 30.931614882476573 255 255 255
-3.486457018904046 -2.72594457547475 25.07384658957697 255 255 255
-4.834944934278645 0.5437232160938852 30.03512104104179 255 255 255
-4.568429640669293 0.247203290183669 29.997174788012412 255 255 255
-5.888692005755985 -0.047617806834075814 32.19777842876773 255 255 255
-4.653121421437546 -1.4616417691894565 27.82402884171449 255 255 255
-0.7245306804624456 0.01758385452205065 23.360067255962324 255 255 255
-2.339034492804958 -1.656157719279868 25.18381006211763 255 255 255
-5.882254327972852 0.10084106694741891 32.1951934634755 255 255 255
-3.085433645629818 -2.5258009099610956 24.744673918414 255 255 255
-3.7367168342293815 -2.1349853247414754 26.18770395397738 255 255 255
-2.343869285455316 -0.4703079467530965 26.485964651639982 255 255 255
-4.837012490378449 0.5258140084347481 29.951879669194202 255 255 255
-3.250742258484667 0.771756851684464 27.239904493459882 255 255 255
-7.544104352098199 -0.199956153435435 33.314185370192696 255 255 255
-4.408696391912971 -0.11168906454312552 29.1341781419808 255 255 255
-2.7597384646909524 -0.5934983484746732 26.687959813477327 255 255 255
-7.500799787836189 -0.09335012635427374 33.381165819126885 255 255 255
-3.450663799172016 1.2445383862151156 28.064956014652612 255 255 255
-2.4413487753030085 1.436618266615027 25.652106204073842 255 255 255
-3.391323685087797 1.2388520011261552 27.841340761454713 255 255 255
-2.546974241609969 -1.3327585641386803 25.735067000470835 255 255 255
-6.440462653625148 1.9459909447760528 32.751764515096646 255 255 255
-5.720592168368481 -3.0928208233702654 27.778590469727316 255 255 255
-6.575034644853185 -2.7909558516872437 29.397324958873924 255 255 255
-1.5052743114089413 -0.18333337241230438 24.70539421362187 255 255 255
-6.499641950618358 -1.9367713993889382 29.867410617705954 255 255 255
-8.090382678124836 -1.245596511153292 32.95119454997066 255 255 255
-5.686283457914202 2.2323459946606348 31.70351295994578 255 255 255
-3.9557372063524454 -1.4134895022684624 27.17794848030482 255 255 255
-3.7631909805015433 -3.603159990029279 24.916710132063336 255 255 255
-6.25123278751737 -0.2668225319846479 31.932285736409284 255 255 255
-6.560195277349963 -2.7858815204188176 29.125156962481 255 255 255
-4.622482153486004 -1.4701697120308759 27.608669980127633 255 255 255
-6.785658173891078 -0.12251147406509709 32.62268066852261 255 255 255
-2.377636572167648 1.47055353631526 25.397034910343994 255 255 255
-7.379330937293657 -0.9012644087688434 32.02909408441136 255 255 255
-2.39566365931108 -0.4423199687969642 26.244307711879646 255 255 255
-7.333732631404642 2.125022866228877 34.21564959583385 255 255 255
-2.108815278093164 -0.061705755036006525 25.709095937177338 255 255 255
-6.013957825778187 3.9627657052792804 36.39538654826935 255 255 255
-3.264127057739493 -1.1853551102471256 26.503164159079233 255 255 255
-7.51392987369778 -2.6627149312221894 29.350654678865055 255 255 255
-2.9678406242547526 -1.5212662359149691 25.751507662024732 255 255 255
-3.789384700312962 -4.176317404487948 24.82931227808515 255 255 255
-7.081645607957052 -3.459952188120714 29.334718428902544 255 255 255
-3.5983807197326225 -3.7113726171249666 24.632465816303583 255 255 255
-7.287827317401574 2.183171600304964 33.92100000048186 255 255 255
-4.654223928881971 2.3070223824894787 31.503698511021774 255 255 255
-7.221854314574329 3.0944794581508495 34.65908778275953 255 255 255
-3.2007327752555015 -0.8673216751115617 26.992522622204653 255 255 255
-6.444195360333873 -3.5369233105822815 28.41332727543248 255 255 255
-6.467676820524478 -1.0533122690045253 30.89948124808954 255 255 255
-4.666759784659153 -0.28161225660106715 29.495353747557786 255 255 255
-3.483322967874362 -3.6948478237122293 24.382924775639257 255 255 255
-5.9199630104432135 -0.35402250477796443 31.300305913660328 255 255 255
-3.0918442365892673 -0.9423167662884219 26.211771326702028 255 255 255
-5.052406149950865 1.257930905904348 30.560519133611184 255 255 255
-4.4924456026397825 -4.281038133362437 25.83498304722471 255 255 255
-3.970617330652303 -1.4713838474718735 27.29903325172567 255 255 255
-5.747793738277554 3.973913044706166 35.509326336093615 255 255 255
-3.483055985046496 0.11876122677151713 28.184145466486537 255 255 255
-1.9789596789174873 1.298893564672913 25.285429208972253 255 255 255
-7.240986424037304 3.061690075102623 34.682172500428976 255 255 255
-6.565711906312236 -3.5919232933697636 28.629368739267626 255 255 255
-6.705262763052791 -0.15707909168404677 32.61524211799567 255 255 255
-6.40594283298209 -1.0779780216976729 30.67111137347046 255 255 255
-5.0600966027184935 2.7478514792886863 31.716809406831644 255 255 255
-2.4169950166436425 -0.9980952863863433 26.466716567189824 255 255 255
-6.594076948310396 -3.1864729772961695 28.865263856757895 255 255 255
-1.5771276864217199 -0.5312239602633674 24.99613561135092 255 255 255
4.3521862183170335 5.002504180668286 19.718328476154134 255 255 255
-1.28888274202804 -5.402394700754573 24.41741454561264 255 255 255
-4.237808512100175 0.9974489011070471 26.176005644492548 255 255 255
-1.1131104160916736 -5.3822303147491315 23.99248070032376 255 255 255
-7.878959098056137 -1.7276772534429814 31.60815011657456 255 255 255
-8.553655772498608 4.576521932370584 40.566374714391394 255 255 255
35.316342232364455 -36.51463479037895 -121.54711420267026 255 255 255
-2.8009290266459956 -2.2481411184008384 24.80560044167112 255 255 255
-5.1769528849756865 -0.2674271074554744 28.648736332250188 255 255 255
3.801490708167476 4.354035397894028 18.226484199338312 255 255 255
-4.8440041441202615 -0.37697597587725773 29.40413222326219 255 255 255
-5.753676348904159 2.2951634395995 31.87501093945736 255 255 255
-7.325059549595307 -2.7311097073334305 29.383234848899775 255 255 255
-6.7708750348536935 2.5895256721039144 33.64265284303787 255 255 255
-4.811447738614358 2.4712160704593353 31.281010468374674 255 255 255
-285.8284020593554 -7.564181629012017 1951.2757885366225 255 255 255
8.935165015050673 -4.404138186068995 -103.65135295451928 255 255 255
-13.400197071793398 -5.1498442284286226 251.51671825733123 255 255 255
8.134947386103127 -2.5047754651441427 -285.6515519363753 255 255 255
27.93634689705671 -3.8613572783433994 -249.8741555776305 255 255 255
-141.55353148611474 -15.384809126160448 973.7512283591033 255 255 255
-8.66412585461871 -5.138924444070874 379.70195770773506 255 255 255
11.363563480840204 -3.220382477299066 -212.14086680136995 255 255 255
-124.27488972575817 -245.20834607174748 1353.6452676643764 255 255 255
22.57097014301599 -8.301684023649434 -205.90011878944227 255 255 255
104.45018546792117 4.880335679383089 -587.8102559760226 255 255 255
-7.099227499735381 -5.317352987470155 97.82992595636773 255 255 255
137.82982322993547 2.036579384952886 -712.4696496226592 255 255 255
-5.987671495295433 15.77522049546862 72.26996028213199 255 255 255
-60.575494911291834 -17.230632202847378 489.13885415368077 255 255 255
15.34281104474982 -4.216719692537649 -134.55283785277058 255 255 255
140.00085959753744 30.541805928300562 -685.7258137328632 255 255 255
-76.75367099943976 -10.707083400556836 503.13528591528774 255 255 255
8.231671109895123 -4.306558474051091 -97.55598514224707 255 255 255
-6.020495392796632 16.0665014666339 74.67024144019197 255 255 255
14.100528305862811 -3.8316909448365872 -122.24009619655516 255 255 255
-46.005330356446954 -3.3124143201831946 391.7539818633059 255 255 255
-3.221194952075205 12.667548679670952 59.60260825284625 255 255 255
-65.87541487900313 2.3010435773145423 523.1491667431 255 255 255
-5.4124587273719165 14.292135266158475 67.82713432335807 255 255 255
160.3615288221902 11.341692959439023 -790.1295764588359 255 255 255
0.01653305983377051 -0.013367677680934406 0.05376870815943795 255 255 255
228.06704017942565 23.093829358204303 -1195.8703996096249 255 255 255
-9.397376615768877 23.046612786222816 95.62974625150233 255 255 255
-3.25797353823045 13.175744558048947 61.09840762366873 255 255 255
145.8498473003673 19.561673249093612 -679.9252682110134 255 255 255
4.082223535713162 3.9652636917292696 23.86815929431189 255 255 255
4.221309438258803 4.061403869832894 24.917552908554175 255 255 255
7.149431445804136 -4.192154167210119 27.363479904898522 255 255 255
7.450416537998526 -3.9963377442720933 -106.86953336767219 255 255 255
166.0812105343545 12.84839417826957 -827.8462187858618 255 255 255
169.93815860335968 37.95877444202226 -834.5481074364542 255 255 255
502.2113021826416 307.02708805506745 -3508.7033008661815 255 255 255
-24.39070304685647 28.10754733898486 248.4236562735026 255 255 255
-6.851684935301859 14.686417472010715 68.27045627250862 255 255 255
39.493594448866084 49.95461706683112 -323.4695934550856 255 255 255
-8.36920251388537 -5.091485190360456 146.25595021105272 255 255 255
-8.235161747595278 -4.552023030247318 122.45534907916345 255 255 255
-113.32179231683212 -17.295144213779178 712.8310888586026 255 255 255
114.96378955641006 14.400924838834936 -530.6236559414152 255 255 255
-7.957207649819689 -18.867290658543293 91.56086827156555 255 255 255
7.259341994594103 -4.298081404629864 27.748151763836287 255 255 255
169.54670577477117 10.165603787612776 -771.8978321680185 255 255 255
181.2584243815886 22.151652251295587 -985.5505392877852 255 255 255
4.882501951938552 2.342393230829542 -16.845572212069655 255 255 255
-0.10148902635641001 1.2196899269420336 4.687761788170121 255 255 255
-0.6137686069728668 -0.27038676557680114 4.482838418412791 255 255 255
-0.7449461241295461 -0.01801340613037875 4.4927862156213525 255 255 255
-0.8082177876325236 -0.2904954596389904 4.461686187240737 255 255 255
-0.22927703308932593 1.2047119896344929 4.731399601776661 255 255 255
-0.7138712799516337 -0.2924406998083926 4.466480035902295 255 255 255
-0.11234890272874581 1.2018146844335207 4.684032223259078 255 255 255
-0.33893544971225587 -0.1155667224036678 4.514474118866394 255 255 255
-0.7341682241929551 -0.06631229906211891 4.504214126078706 255 255 255
-0.36222475261190407 1.0360401343628538 4.870932046569052 255 255 255
-0.23625963709749395 1.303489656225252 4.69908806224484 255 255 255
-0.7142525537532197 -0.30054879659113476 4.463292251838068 255 255 255
-0.5637750737995879 0.06638486864710062 4.392277926489592 255 255 255
-0.4304000048611084 0.1840874051319136 4.313790508963876 255 255 255
-0.5640750724292358 0.1394590434708088 4.350398080894786 255 255 255
-0.2013190656161004 0.026707907025840683 4.421049157974095 255 255 255
-0.7672512059558377 0.0284807408358853 4.455009845967948 255 255 255
-0.3573915883795042 1.051068338112252 4.866945685993814 255 255 255
-0.5132645256595783 0.203952249892247 4.331094365939073 255 255 255
-0.5699508672302487 -0.0060870392689005605 4.46974719288514 255 255 255
-0.7067406650741547 0.33689476668025176 4.324053392440598 255 255 255
-0.7967478902521717 0.27092438865119495 4.332189339882351 255 255 255
-0.19778336872191338 -0.08218760479230294 4.490791489621191 255 255 255
-0.459084813879162 0.2088212790903684 4.335109656643702 255 255 255
-0.7101672791098261 0.34678247378115495 4.3134212613579574 255 255 255
-0.5598496719811044 0.13798620493336367 4.35287765068518 255 255 255
-0.07977261487519947 1.274837612021575 4.644393321298387 255 255 255
-0.5418809424726485 -0.17622777863346148 4.528464838015981 255 255 255
-0.5655983084939161 0.5317069306448208 4.444712266744032 255 255 255
-0.781024754830125 -0.09811585859622178 4.5109590797947 255 255 255
-0.8008310482680578 0.27840524024965885 4.329644161206708 255 255 255
-0.511496318501365 0.4998662161890128 4.416825780278528 255 255 255
-0.5596007394277682 1.1724018066429223 4.83955815402472 255 255 255
-0.9284557545718098 0.3678081815705001 4.359134295227325 255 255 255
-0.24071948635997467 1.1690368785405234 4.752691280156357 255 255 255
-0.7350313868826736 -0.3995420570904339 4.474090335832507 255 255 255
-0.7605503897313343 -0.4105852378092677 4.54047240456828 255 255 255
-0.8098027156247535 -0.1096272420354836 4.5123892169969935 255 255 255
1.0570222053874698 -1.3792113810012343 6.181584243384488 255 255 255
-0.9683899024595509 0.25888736245906685 4.381898082619231 255 255 255
-0.6871999549260356 0.30004911316616734 4.334090175655988 255 255 255
-4.4640181820676545 -2.2133818127251046 21.26565361249293 255 255 255
-3.9477608129954453 -1.7336847143928236 20.965992496627496 255 255 255
-4.713935852196935 -1.0866701917372101 21.203617256090123 255 255 255
-4.538200513899381 -1.5032198029116124 21.552137891186867 255 255 255
-3.6546848765814497 -1.0900139356192888 20.267853094778342 255 255 255
-3.653323420736485 -2.80049067287764 20.663482636499857 255 255 255
-2.5889894165673892 -0.23364878236479827 18.83247304969795 255 255 255
-3.9524037915712222 -0.721363803459167 20.541014279969776 255 255 255
-2.2969602121043087 -0.3428340480240951 19.277079066064704 255 255 255
-4.504391428295436 -2.2395921226294893 21.25131392072949 255 255 255
-1.3634282432859786 1.2468947308546525 14.361351062265095 255 255 255
-2.7351377085945736 -2.418093711943928 22.727649688370445 255 255 255
-2.334564518641996 -1.6713075334562457 20.403775719140768 255 255 255
-2.8219034903157008 -0.7832728347954502 21.99817165926485 255 255 255
-2.0021598357519914 -2.8648014282941765 21.071992742080088 255 255 255
-2.7064224972661886 -1.5859513870891022 19.924904968527635 255 255 255
-2.697301923646203 -1.584759665647871 19.85088105681038 255 255 255
10.152033802126471 6.495718730308553 51.78434755252149 255 255 255
-3.369569808395684 -0.5946516630520253 20.277377519109177 255 255 255
-0.8861372399544548 0.4576874336247154 14.351332991850757 255 255 255
9.59295794904456 5.928380259764055 52.32680756431944 255 255 255
-1.9811420488591425 -0.5818663256569304 21.450662476647153 255 255 255
9.674302434193576 5.870413979001546 53.18133548453934 255 255 255
-2.0984199151761342 1.0658324362472753 13.472646533723031 255 255 255
-2.3313419455100184 0.7523300257223327 14.008548892623676 255 255 255
10.407328427590707 6.600941846944077 52.40503194129049 255 255 255
-0.7167893257252731 0.4596770843388168 14.482091650768925 255 255 255
9.226084756356288 5.255502035235976 53.16480944431784 255 255 255
-2.0440693092373468 -4.090659544400156 22.32834463515442 255 255 255
-3.9008532915479486 -0.7561673276592327 20.496192610855147 255 255 255
9.539287899732175 5.608128233055186 53.4351962250653 255 255 255
-1.1990556687510294 0.34630916334125345 4.093640270567229 255 255 255
-2.084533287203937 -1.9107983593268607 27.452667944006006 255 255 255
-5.224976050567183 -0.34729556286646446 18.786164882529214 255 255 255
-1.1957420548724962 -1.0056006841572123 8.411609487296968 255 255 255
1.3259167048475902 -0.631742314633578 4.960574620888796 255 255 255
-1.3490214766595179 -1.1296829582833154 8.617796335692672 255 255 255
-1.5287757952115146 -1.0715637800202868 8.972215131309065 255 255 255
-1.512351421230349 -1.3355766782909704 8.861903198420567 255 255 255
-1.053532721400347 -0.19282972077290902 8.23564040900616 255 255 255
-1.342410669875632 -1.3810454772167344 8.629747989956446 255 255 255
-1.3679325524015977 -0.2565236002017359 8.71944680004449 255 255 255
1.3586551987882431 -0.6848062428974132 5.119832987325308 255 255 255
0.6595516343778243 2.913453813937778 14.450118602870972 255 255 255
-1.345552895008125 -1.130980083594411 8.661910353048636 255 255 255
-1.3707495633957785 -1.269775746151537 8.67148438296728 255 255 255
-1.4482932996401054 -0.5178041484871592 8.809517594090057 255 255 255
-1.278556142790899 -0.8358464457613901 8.560479160050377 255 255 255
-1.2298297748550808 -1.5834836789008804 8.564986170990636 255 255 255
0.22603067905227175 -0.41715346078675586 6.713600802187803 255 255 255
-1.3310847566150958 -0.40863566797385853 8.652464445761565 255 255 255
1.355464249269699 0.6228197807522551 6.919435444741952 255 255 255
-1.5351158099787694 -1.0749094506376973 8.90681152051438 255 255 255
-0.7671637822249213 -0.7654855915519678 7.977522220524497 255 255 255
-1.0464907217712205 -0.34233845653999584 8.178131118272013 255 255 255
-1.3865605671989043 -0.27897142539422204 8.727927069062266 255 255 255
0.03345586482108169 -0.5548668973926084 7.587466137263882 255 255 255
-0.42908426661604 0.2705608450013718 6.0043505355681255 255 255 255
0.01200508850049662 -0.5210319355772114 7.7271053653813 255 255 255
-0.16397578312731656 0.02753064347332531 5.996894061643309 255 255 255
0.6169751481709855 -0.05727145145403011 2.151491614678586 255 255 255
-0.6032696074594396 -0.7901462369425033 7.952076398094178 255 255 255
-1.341431075721801 -1.3857493609328073 8.605475519339798 255 255 255
-0.21343581240019943 -0.09349978800122141 6.482435743781479 255 255 255
-1.4348092478907357 -0.3746986184162303 8.811262511639946 255 255 255
0.23514857137625336 -0.4049283929556054 6.682185579425859 255 255 255
1.3579866871472461 0.6068834282163873 6.988887940938424 255 255 255
-0.7558539855247779 -1.0740154651779912 8.419591311143417 255 255 255
-0.16366705787522534 0.021881708801782886 6.042160256584053 255 255 255
-0.49350144741826 -1.6221447030774745 8.288656670245073 255 255 255
-0.9979834089651913 -1.0726998705806499 8.118457671726881 255 255 255
-0.6145883870445393 -1.7425342016975736 8.481791275927147 255 255 255
-0.9804989314987385 -0.3731265776667824 8.0842597554546 255 255 255
0.4379520326597813 3.2751597248497197 15.151951985766754 255 255 255
-1.7097347148020612 -0.2696159953509011 9.361601231304318 255 255 255
-1.3052672704748662 -0.42296756221468224 8.605002144436066 255 255 255
0.4271428299569941 3.452614008428027 13.568053867077026 255 255 255
-0.3045669620597761 3.2715740721451523 12.20053288752341 255 255 255
-0.9969684013457084 0.26702063751723343 7.13888796162054 255 255 255
-0.7525495429982938 -2.044188965082791 9.033862086734775 255 255 255
-1.215547526681538 -1.591708318875464 8.563988817757577 255 255 255
-1.4776579927122997 -0.3838826640910882 8.92061741970799 255 255 255
-0.19481092927480806 1.112936181277303 7.518691866262059 255 255 255
-2.5240058129166156 -0.2750138988925197 10.793515873563353 255 255 255
-0.09202125936128691 2.3922085611619774 12.698411738802552 255 255 255
-0.7630062100833979 -0.7624747196764767 7.938852415507581 255 255 255
1.3324270621927696 0.5662287510462874 6.98167125972814 255 255 255
-1.5943462345570991 -1.0961008285893947 8.92980870993657 255 255 255
-0.7172072910278854 0.6228122452408512 6.342882816631749 255 255 255
0.37049780022707635 3.1010987029749892 15.008925083414844 255 255 255
-0.854422349957585 0.42535414649949044 6.601051626604434 255 255 255
1.3357296281023276 0.6653854427540471 5.899533680549785 255 255 255
-0.6559914711966316 -1.7423998972537773 8.536274286365598 255 255 255
-0.33611250317317476 -0.2723685462033407 7.8672266053231965 255 255 255
-1.1861968775067848 -1.574315706394952 8.536648092209235 255 255 255
0.7240616301467414 0.36483754135784663 2.736873914218399 255 255 255
1.3488664368161876 0.6547789136055382 5.843077297116945 255 255 255
-0.9274443063159487 -1.037498193980459 7.09285735774731 255 255 255
-1.0299279020043457 -0.9630666538537741 7.0961148514859165 255 255 255
-0.9246114436907916 -1.0380364827010147 7.117089306134135 255 255 255
-0.5641003600870371 -0.3776575538997876 7.987731014264165 255 255 255
-0.20402088174021588 -0.5881558611610839 8.378825090216857 255 255 255
-1.1230516566629851 -1.0906950942771285 6.967684387295343 255 255 255
-0.16176510298132224 -0.7503145436899652 8.495788940919542 255 255 255
-7.311731976107431 0.2350021497028272 18.054795268905558 255 255 255
-0.9335212749266479 -1.131810397769708 7.037468352823888 255 255 255
-0.18020008276160243 -0.4906467674273601 8.33796317136872 255 255 255
-0.42831745138593724 -1.6049994039341602 7.434446064626663 255 255 255
-0.9143646311781334 -1.2216659406659716 7.009527916265509 255 255 255
-0.3982423326173446 -1.6228827302302873 7.476736272553375 255 255 255
-0.9137162893367541 -1.215863250333476 7.012326778198712 255 255 255
-0.07899528220031242 0.39660501900681683 8.311046517234525 255 255 255
-0.8219638952582851 -1.3803986505172032 6.9868136509773935 255 255 255
-0.44689067871240157 -0.434687566893456 8.130758910099841 255 255 255
-0.010589454922073938 -0.8800679527298199 8.49270185146109 255 255 255
-0.7632235182333686 -0.3495398428185505 7.641393302290953 255 255 255
-0.9592976359300063 -0.37910014781956614 7.438351857608879 255 255 255
0.4697636012062348 -0.7279095270562466 8.77641817860508 255 255 255
-0.14523508566754448 -0.768438937161235 8.497376036736725 255 255 255
-0.3370285382015599 -0.09092302765175342 7.980060371161671 255 255 255
0.03687356138698421 0.9584153066677278 8.761419602391411 255 255 255
0.8741383497065242 2.093537323583982 11.309826161904539 255 255 255
-1.5347747401799132 -0.3415599979987974 7.333427886459167 255 255 255
-1.6555679272365076 -0.4449582062498005 7.21924646686035 255 255 255
-1.557820412550838 -0.4348498421614291 7.278723881593422 255 255 255
-6.899708347186294 0.20532956407025946 17.33318818824687 255 255 255
-0.10225159264674327 0.41577973656172995 8.307292124520309 255 255 255
0.2363844944096102 -0.04352985781891895 8.204555556024806 255 255 255
-1.6501897248393913 0.7793541623110612 9.442930461855106 255 255 255
-1.862892094935606 0.7923378941724903 9.148263569827376 255 255 255
-1.8738306766837094 0.8130849542092067 9.14201200522734 255 255 255
-1.5650005731555492 0.793377685075145 10.570858114380995 255 255 255
-1.5488106588045707 0.8212500446701351 10.749434804846029 255 255 255
0.728489918216973 1.9194188480716277 11.188742188632125 255 255 255
-1.6666693488857218 0.7152413497360514 9.73624630769728 255 255 255
-0.9829191155818359 -1.1759146435974566 6.995455359415138 255 255 255
-1.6531871723706857 -0.521418934730589 7.175196835514487 255 255 255
-0.9297487361988703 -0.4985823030866583 7.352725396497696 255 255 255
0.7643515067868193 1.9664560842745011 11.31303427033951 255 255 255
-1.7181443944734445 -0.39512670578195425 7.214330320550092 255 255 255
-0.5265885750602752 -4.164585677827863 -17.52406269705786 255 255 255
-1.5195282489015216 1.2469054076553479 10.76955474414382 255 255 255
-1.655986477026032 -0.5249175006505615 7.174487596318638 255 255 255
-0.48595447970011935 -1.0158653032586407 6.626089492212694 255 255 255
-0.5923368622269874 -0.9518414968214437 6.581840795772167 255 255 255
-0.40218530822560217 -0.9912825115068044 6.677016468510023 255 255 255
-0.6297046525872674 -0.4705436944994433 7.0144099899661185 255 255 255
-0.49160334634374725 -1.0139702963426658 6.6293896021740455 255 255 255
-0.5875649127268305 -0.9398561473594019 6.6056200501132105 255 255 255
-0.35339999378961623 -0.7105059577720276 6.939462129725771 255 255 255
0.0719343589296009 -0.36199361008823955 7.6144456419074436 255 255 255
0.0776785137235463 -0.28599294624600013 7.632289284183274 255 255 255
0.1139014983069373 -0.17024094573802642 7.554861308400083 255 255 255
-0.26155716871562024 -1.0463268203558516 6.727925829558842 255 255 255
0.3039347113759945 0.2615006881247916 7.337350447063897 255 255 255
-0.3908122692670819 -0.3881463484616367 7.2548423802209205 255 255 255
-0.6257884713232582 -0.48132767127898707 7.015198554761169 255 255 255
-0.47921802117902274 -1.1010978891904295 6.578699340569573 255 255 255
-0.820850211446685 -1.109385154393383 6.46098263574258 255 255 255
-1.3447425407902118 -0.8081188027446042 6.805702107037615 255 255 255
0.30209532863967864 -0.42434740775250723 7.722632034807586 255 255 255
-0.5085613103557053 -0.8301995951802552 6.752519877055463 255 255 255
-0.29708368865613216 -0.29481485931511053 7.377957924991815 255 255 255
-0.8227267277321667 -1.1153233294578544 6.429924791601122 255 255 255
-0.36038114812614297 -0.696556859705563 6.963550038097587 255 255 255
-0.6020107073659778 -1.1050946550669114 6.513453114397293 255 255 255
-0.9747398265427609 -1.1540052520343138 6.419079223442104 255 255 255
-0.25048486556564376 -1.0466451098845972 6.73225446465698 255 255 255
-0.23101281205806218 -0.21680266580727522 7.469050213908836 255 255 255
-1.3464766064805902 0.9047269787832318 8.681692987316165 255 255 255
0.6314560179185962 -0.6117171914935178 7.940893262337582 255 255 255
-0.014571151703391348 -0.7122392373530257 7.2318821923122645 255 255 255
0.5175391418889421 -0.5023395767253996 7.7752785053108076 255 255 255
-0.22333680790043223 -1.0301818572201549 6.745744597778642 255 255 255
0.4745670460838185 -0.16820451690474494 7.538488821583671 255 255 255
0.23484266288395994 -0.7491039900758791 7.486747796961599 255 255 255
0.10431121413192529 -0.7636277118415069 7.325153334753366 255 255 255
-0.04238276475369577 0.059032100955473975 7.439688042740555 255 255 255
0.4676862235552216 -0.16216935530798415 7.54729216837719 255 255 255
0.3064018350560108 0.2797729032545314 7.323450283635077 255 255 255
-0.46827249945895966 -1.0379768315267905 6.546213031573794 255 255 255
-0.3500877991100958 -0.670866910966517 7.003293643850486 255 255 255
0.5786620112874613 1.416563010646296 8.500565175774069 255 255 255
0.32864783692693206 -0.33100675755222303 7.658983115544795 255 255 255
0.06148184229415682 0.3173217978287213 7.179230775066509 255 255 255
-0.9584282952453521 0.8893917216819585 9.754499157305416 255 255 255
-1.740644059101681 -0.5028366167935141 7.049930356804556 255 255 255
-0.22102204914193532 -0.3499487554683835 7.394271123945567 255 255 255
-1.141124460156421 0.892166011200971 8.977382338395282 255 255 255
0.1452390522108888 0.20591145467414182 7.242370430656321 255 255 255
-0.019452733518427894 -0.7143861767939512 7.240695579714771 255 255 255
-0.16880814357983948 1.0317488595711586 8.563989312636028 255 255 255
-0.2131405453428075 1.8684035916963058 9.350993813674426 255 255 255
0.6575497963338675 1.140563856262035 8.460035001376372 255 255 255
0.13383245671638272 0.4629911157837043 7.267090442310064 255 255 255
-0.4928583383897467 -1.2614389101203891 6.492667805140046 255 255 255
-0.6874325512185232 -1.227034068793277 6.426559153860997 255 255 255
-0.03859750250954285 1.0670714420946605 8.169932786024521 255 255 255
-0.035752188204259676 -0.7018765091909213 5.0170536170814115 255 255 255
-0.03115789365471264 -0.702128125775732 5.004710568348989 255 255 255
-0.4885359110663694 -0.18493183780635447 5.925030383738124 255 255 255
-0.26555260997240476 -0.16865250212624153 6.198680548230114 255 255 255
-0.05127249095070704 -0.6040083915327195 5.1686308806019134 255 255 255
-0.10937957208737621 -0.6411205424112435 4.880396356329636 255 255 255
-0.22741606936788644 -0.6749984382225556 4.6243575542299 255 255 255
-0.031047467299620733 -0.20249195098036898 6.251649787265955 255 255 255
-0.3668316583724835 -0.7156195535682643 4.2144075887267025 255 255 255
0.026486741442121375 -0.12497638901339742 6.45509506795826 255 255 255
-0.2247247228550391 -0.6747143771461261 4.6335883896743475 255 255 255
-0.05612798502169352 -0.43439200627908875 5.695244688642054 255 255 255
-0.11868048372398045 -0.7412808724330293 4.708506673357968 255 255 255
-0.10557410177070314 -0.6301226634413297 4.881838603876601 255 255 255
0.9381513875228492 -0.04880441746911402 7.333978889494987 255 255 255
0.6532730509158132 -0.7704789206319959 6.566015414877008 255 255 255
-0.41279950092798395 -0.18508141290542338 6.006817164676404 255 255 255
-0.2696959835613541 -0.7101099521359535 4.421831257530035 255 255 255
0.7048281360779287 -0.29401027047476025 7.17937410246704 255 255 255
0.8542347994378187 -0.5383100415362428 7.2134602972307205 255 255 255
-0.2627045602316998 -0.15688910685968938 6.2338340266786485 255 255 255
0.8080277432457225 0.3798670389454281 7.123056212473856 255 255 255
0.9282403053311561 -0.04191873591650881 7.324151515163932 255 255 255
-0.43100283573320036 -0.6728089324708798 4.575722838066528 255 255 255
-0.728971266272187 -0.2312862246075784 5.731046880477054 255 255 255
-0.027605411693587448 -0.7562881116607122 4.893106912082982 255 255 255
0.035767338556893666 -0.696440747137924 5.159817398536156 255 255 255
0.8174711143650786 0.40058846431670336 7.152261614311264 255 255 255
1.3674596363292495 0.16287550636980574 7.771248690886592 255 255 255
0.6404442240350878 0.3217111302844873 6.921411351072096 255 255 255
-4.932397658341164 0.4725624074359243 12.492712574935585 255 255 255
-0.13563047048751056 -0.8016069439181003 4.566525308242124 255 255 255
0.048302652021245986 -0.7482205437059075 5.0686656117729925 255 255 255
-0.7455776649580732 -0.22229227601902396 5.787583824894108 255 255 255
1.3646915630220262 0.16567219481290926 7.775751429679666 255 255 255
-0.5834156134560553 -0.19476361578641344 5.864532069023711 255 255 255
-0.5940672315316674 -0.5124142652006919 4.996364558987347 255 255 255
0.2561437778498634 -0.2535144073026486 6.5554934941804905 255 255 255
0.5722914646491486 0.43179283032737836 6.875883037722146 255 255 255
-0.8886059869186836 -0.33863951716567114 5.915953613927706 255 255 255
-1.5569015198373057 -4.265729291357776 13.036929669750752 255 255 255
0.30438496427591444 -0.7559339908988498 5.794003646154028 255 255 255
-0.029561912634236107 0.0800137990713681 -1.253648483663932 255 255 255
5.770359231623222 -3.721950781548218 -135.38554764869107 255 255 255
2.7207320939094677 -4.916657471733076 -178.7648080951291 255 255 255
201.333568249113 -412.12868214441687 4548.048085152853 255 255 255
26.68458595610441 -85.49182469635177 906.4633871603766 255 255 255
56.512300421441 -174.58689229887568 1841.273143423011 255 255 255
12.365109106703136 -2.1787184788993232 -153.75183847289122 255 255 255
9.374477713966026 0.7407647845953215 66.46913568381348 255 255 255
-4.526486648015579 -3.202554101781635 -169.93824958302386 255 255 255
-38.067527382779915 -257.8590144665498 2703.2252702117808 255 255 255
-9.046776159470074 -20.02896544140656 161.1096313893268 255 255 255
6.547657144156046 -1.145959064209592 49.95920512518886 255 255 255
64.0215690083218 -105.32753132791247 1431.7165318287916 255 255 255
-25.884529679760544 -12.859657891747819 277.67201164739134 255 255 255
8.72743948148886 -3.1100578580820972 -112.81110966828865 255 255 255
-11.073421801333053 -71.31269706991635 746.7944827552269 255 255 255
56.0004833857496 18.05592164845835 612.9266080967753 255 255 255
-9.911530779967059 -9.565734005741147 123.3819040356638 255 255 255
6.730848767336403 -0.6590739593673975 42.539810648943735 255 255 255
15.951621193040424 -88.84623682297213 703.7980750517071 255 255 255
-6.7935256020489145 -34.79796101732094 264.0906111608163 255 255 255
-67.61127548284976 91.7841900467423 -926.0869179944282 255 255 255
59.35342566757671 -88.24465855885079 870.919705716052 255 255 255
-26.69037677177774 33.69643458496462 -1422.7795789598024 255 255 255
6.591636500016604 -2.867150609797752 48.68240814842405 255 255 255
-132.73388512449307 92.0123394529667 -2654.122838023528 255 255 255
46.959286742650015 -103.0431631104359 986.5350335286329 255 255 255
99.38698144325363 -220.0734403591247 2091.469294347849 255 255 255
12.455362719114078 -3.230611743067054 -178.2451769598051 255 255 255
-36.48132081320207 69.38541637259232 376.96946878679745 255 255 255
-32.13015671262851 21.49971743242708 -454.7447933843824 255 255 255
7.099001157176825 -68.55110076149874 616.065406166513 255 255 255
9.708476493422973 -3.044404955363767 -82.44763670041033 255 255 255
-18.20746543854094 -3.664975529142656 -273.0479723036224 255 255 255
6.70737889214201 -1.2608603820323405 50.3485322373279 255 255 255
55.702740068223484 -85.0675993028685 841.2788380935926 255 255 255
14.555023011083112 -6.641617698929993 150.58670517309017 255 255 255
5.479035719550933 -1.0791154128775113 33.401707722220344 255 255 255
-76.72219510625574 -53.42761866268149 -556.8190949724333 255 255 255
11.040887041645467 -2.038884945643491 -139.49986787715778 255 255 255
-12.206037573385226 -0.8782792446536748 50.82072543742601 255 255 255
9.593167883471317 -6.1765385177336105 64.76597572401725 255 255 255
7.20221862072787 -1.9343980622167243 47.67953745493469 255 255 255
-14.059464230229104 -0.9800464632720591 58.21730584182149 255 255 255
6.789799729620561 -4.205061361121042 -157.0995378835823 255 255 255
-4.766087676958317 -6.884704586336566 -48.23278277456719 255 255 255
1.7148660942374983 -0.5559163344973675 -5.3577787650868185 255 255 255
0.0688214802104827 1.0517875509315269 11.718049827013978 255 255 255
-0.24891380207810895 0.7062394321400008 11.120644356660994 255 255 255
0.0650803844023492 -0.6439366253788654 9.953742859636765 255 255 255
0.8376156801641421 -0.41196754713076866 11.754820383403437 255 255 255
-0.011690756430048924 -0.7374426615165631 10.010585523640083 255 255 255
-0.23598876996548473 0.6859611039440636 11.155496288004802 255 255 255
-0.21207418864055036 0.8409693672082882 11.301729631000494 255 255 255
0.6120086281774456 -0.6407042583991057 10.974000260575266 255 255 255
-2.282885433967873 0.184537447268025 10.406711195561698 255 255 255
0.19219655818831094 0.8505467240145405 11.688463041611893 255 255 255
0.29689921144994774 -0.6352534489578742 10.331792290527002 255 255 255
0.29712169075686007 -0.6517022223155786 10.363417585873297 255 255 255
-1.0403683368810746 -0.8640409025422654 9.203740941828022 255 255 255
0.5515846928996769 0.8992282119967212 12.322064889826578 255 255 255
0.5087765177499475 -0.4807326770121921 10.853031905809608 255 255 255
0.002810924340069044 0.8654050097416673 11.507061861580052 255 255 255
-0.001838384036408745 -0.6676104094966829 9.93383986336312 255 255 255
0.14047004623967138 -0.4966659668830814 9.977215003029066 255 255 255
0.16866439278943912 -0.5173516287359069 10.141576631328078 255 255 255
1.0741650757682937 -0.6113485618641268 12.299534994506589 255 255 255
-0.20982516292511147 -0.49135391014394664 10.401120518545646 255 255 255
0.7652101452083846 -0.7293778501159971 11.313487100577943 255 255 255
1.3066967552257225 -0.3849800297188587 12.876721988577671 255 255 255
-2.636638260541668 0.20798824521446263 11.498145968794375 255 255 255
0.3091644584877604 -0.8540095261866543 10.348026490874402 255 255 255
-1.0456743536128514 -0.9157823948743937 9.305428502161567 255 255 255
1.3272546065500914 -0.3911696896579303 13.028723653705853 255 255 255
0.9768500246108408 0.2776493293620472 12.556970116552788 255 255 255
0.02440771684100115 -0.43676791059501635 9.531058314526907 255 255 255
1.3106550293934154 -0.5974683269043621 12.956743535637662 255 255 255
0.23052440059605497 -1.1838961799690044 11.040936259653508 255 255 255
2.008714692337523 1.1982784422715818 15.999210398026902 255 255 255
1.477694846588602 0.7389085776398051 14.410145706962803 255 255 255
0.17927774075843053 0.8348013810647374 11.604614958467861 255 255 255
-0.3053478403769263 0.032334046571857254 0.7270798801755114 255 255 255
4.034267284015724 0.7346202298697333 21.905461671292034 255 255 255
1.0723478950746754 -0.7804200824164953 12.114861208688042 255 255 255
-1.018995618760819 -1.0113042282452147 9.475442087153032 255 255 255
-2.696744024761001 0.2156388238185553 11.936475465083696 255 255 255
-0.22812757552095672 -0.8419271183260766 9.671211551236839 255 255 255
-0.2578120039672222 0.693624944428971 11.332589821324483 255 255 255
1.640444535658392 0.3822410509170596 14.334955441953753 255 255 255
-2.5906756375571076 0.33143407758363275 11.584230147469581 255 255 255
3.1840827707610155 7.216650523843036 25.39104897260973 255 255 255
-0.08587827553487262 -0.006992056825854594 0.22330492559075973 255 255 255
-2.5525428948506743 0.43185482889442856 11.888954117303186 255 255 255
1.976628566796914 0.3251464109194915 17.21855925296172 255 255 255
1.5127019637887524 -1.582153766817207 14.309519393306296 255 255 255
1.3917440244726917 0.8335078538744076 14.927984239659963 255 255 255
1.5292067990830478 0.5733557318681646 15.01839827041673 255 255 255
1.5046828452630054 0.5554372661605407 14.897998239845405 255 255 255
2.0392075504235856 0.30435084560480086 17.422399117955038 255 255 255
2.2534671602781557 0.27579173239985916 17.24447685381574 255 255 255
0.3858065493411966 -0.6025297887511232 12.656511335687533 255 255 255
1.7005885302186494 -1.4504689762551337 14.646981014025815 255 255 255
2.1668189435410325 0.6105061600936998 16.608365328878183 255 255 255
2.845969117329297 0.746563415712486 18.35332853542774 255 255 255
-0.7157929241148815 0.40275726704570863 13.61690224980534 255 255 255
-0.895001917384097 -1.0181491993361445 9.027752142157881 255 255 255
0.8537866869797651 0.3942604654012965 13.74578988546091 255 255 255
0.8930081571158595 0.5733211925230487 13.750284410826746 255 255 255
-1.1527218897822609 0.2610202730698532 12.815653358426314 255 255 255
0.8386422837702766 0.42175885205232755 13.74475616503745 255 255 255
-0.9379631500023584 -0.8222704386291246 8.384342748653333 255 255 255
-1.317392765945491 0.04973216554884442 13.000350676780657 255 255 255
-0.7354150119537076 -1.2142051988090163 9.717802909382108 255 255 255
-0.7283352731306514 0.3813225332481918 13.49282026239791 255 255 255
1.36503829478794 0.38108596769029585 15.58341819693218 255 255 255
1.9198466975533632 -1.2648993694980928 14.789618476828043 255 255 255
-0.766352299233396 -1.1663041182123242 9.260858205325423 255 255 255
2.6687160773924123 0.10298248013104958 18.105822081784027 255 255 255
1.924314975109026 -1.2807503045933362 14.950321040556002 255 255 255
1.2241503731776302 -1.1076377956527905 13.398885687650726 255 255 255
-1.2903158498464868 0.44382691147395986 3.235828719308252 255 255 255
1.6864644772233635 -1.4612670531321112 14.554531310063513 255 255 255
-0.3970533098131513 0.3799853664951384 14.624792932920538 255 255 255
1.150557699263142 -1.5013928918242552 13.618449614383621 255 255 255
0.7327600882395602 0.7063570732704059 14.118183420139012 255 255 255
2.1425339427224963 -1.4510542027067417 14.983914809542068 255 255 255
0.8105231878432911 0.3867585007896153 13.569278127101228 255 255 255
-0.7411168775127703 -1.2032362103060998 9.599255847974078 255 255 255
-1.0837702051956462 -0.7938286447552424 7.875451200500281 255 255 255
-0.8293327382079483 -1.2331346715849698 10.013114619353326 255 255 255
-1.0159898367947056 -1.9381838824628732 12.125828941431534 255 255 255
1.5913505549644698 -0.08252313115033942 -3.657997721647024 255 255 255
3.8149362494902466 0.24464953792621302 20.55039383162476 255 255 255
-1.0671797235930385 -2.036106478456578 12.396588089314424 255 255 255
0.9111470892230255 -0.7148451028038584 13.938274239736394 255 255 255
3.845798542681167 -0.11459824197538156 19.569673864846596 255 255 255
0.797333898958607 -1.600163381429506 13.00021476181656 255 255 255
3.8966238783578326 0.40118351569764116 18.945450210841347 255 255 255
-0.48239716398462607 -0.3620930230185848 10.053503438882979 255 255 255
-0.4922906140315644 -0.33799682884039545 9.986711884773722 255 255 255
-0.6650785192002758 -0.5565922144002572 10.727991836915926 255 255 255
0.5253993725725291 -0.10173102025780316 6.768923749181918 255 255 255
0.7133517045664854 -0.09280731985711588 6.188493405751895 255 255 255
-0.4655136985395145 0.44568014949256846 8.423952277242915 255 255 255
0.6750403631109048 -0.17950086744860497 6.132063855498236 255 255 255
-0.5712175708847097 0.24485287791829174 8.853571342481832 255 255 255
1.0174141215258616 -0.2640665431767374 6.318170510713452 255 255 255
0.7126367057400625 -0.18527098810158638 6.352367336808689 255 255 255
-0.24062506403883338 0.6690198486916892 7.6342169851436 255 255 255
-0.21795353984943167 0.5272226109075797 7.786699088630894 255 255 255
-0.39102907896946537 0.654362446626809 7.904438235068382 255 255 255
0.01567607592644616 -1.73676228242374 8.912438362925364 255 255 255
-0.48135057284108757 -1.3843863471630116 8.34355654189857 255 255 255
-0.38849448574373596 0.6554115619891009 7.884329033165222 255 255 255
-0.526290241395702 0.5266012509783418 8.127398249910687 255 255 255
-0.19030558681302032 -1.7078540234308413 8.76176395848402 255 255 255
0.02474353970005349 -1.725512232389873 8.883283166444016 255 255 255
-17.53748806858506 1.474862195282287 41.734223842355554 255 255 255
0.527826265379368 -0.08972116696889162 6.810138595577669 255 255 255
-0.9227261733508915 -1.6291797828161374 9.573037855463951 255 255 255
0.5816180680324835 -0.5734029419461539 6.754784697540475 255 255 255
1.7410605048879857 1.2135808551941312 8.946165344458288 255 255 255
-0.8875073326995522 -1.5352765832546846 9.179728989251577 255 255 255
0.06774502322880467 2.331526392914975 10.281573956455922 255 255 255
-0.5682442353604031 0.47840288587094504 8.13320886828226 255 255 255
-0.8505382223982745 -2.0702992701880403 10.239965371927603 255 255 255
1.826881487296018 -1.112569891990245 15.416843040261478 255 255 255
0.8294780136656793 -1.2790682120311492 15.038021115871844 255 255 255
2.718784946057142 -1.4204562220030539 16.86833187998045 255 255 255
2.587173475323779 -1.4603654747738095 17.011256302558294 255 255 255
2.659613951466551 -1.2498632902609295 17.028565445557128 255 255 255
1.5807477081551733 -2.1507567992582572 15.236996283696984 255 255 255
-0.1238684468610034 -0.06146087796524049 11.547023617265841 255 255 255
-2.0904036752361383 3.1963511203973285 20.11740398722939 255 255 255
1.6542871244816184 -1.2467478041204119 15.151768359724176 255 255 255
0.22764592287862473 -3.041236235328104 12.916428356481152 255 255 255
-0.007778951215567982 0.24694626573905795 11.333972548641139 255 255 255
0.6998236716562315 0.28449815818604524 -1.8011898161512327 255 255 255
-0.4920120562879403 0.034475192879060076 11.216103938208269 255 255 255
2.6372150094049815 -1.4946918325458907 17.342618432119774 255 255 255
-0.1667438299838379 -0.049077259477864656 11.208826710792676 255 255 255
-0.04429046788917857 0.0824152233607984 12.794916135584497 255 255 255
-0.4949841147972134 0.033511826478980634 11.085372299216917 255 255 255
0.22021872968927844 0.0809200364358342 11.802062329443118 255 255 255
0.7580338053145488 -0.2790422200133079 -1.9867979879019986 255 255 255
-0.028511379914729535 -2.66477348226048 11.832238596871722 255 255 255
0.197266828613759 0.2880788415890405 11.42908241936711 255 255 255
-2.463988577237597 3.642221811595925 21.586961548440087 255 255 255
0.6734459223333726 0.06240479715211803 -1.679474295473703 255 255 255
3.1412707851215145 2.3790371793867258 27.181130501489974 255 255 255
2.3497382123464794 -1.0786118368900386 16.650232517259997 255 255 255
-2.243802010068539 3.6026044559950647 21.742295689203498 255 255 255
2.5335518854271606 -1.4159078671515464 16.790229584161537 255 255 255
0.14372754675748345 -3.0504123658829516 12.886563338837664 255 255 255
3.299791109641417 2.4656332403613486 27.311773124985546 255 255 255
0.09678479174367781 -3.0107184834745944 12.759825257433123 255 255 255
1.7089632517124365 -0.876546150625207 15.25709016425181 255 255 255
1.6021182687490045 -2.18923333768762 15.220119860983683 255 255 255
1.7982163374859375 -1.0723009147955445 15.227163600782696 255 255 255
0.6268009045159395 -3.303890500995202 14.162778290584 255 255 255
2.7337766267523094 5.3706029459508375 29.35997519426811 255 255 255
0.24713037790536307 -2.7651811528363535 8.649802298048982 255 255 255
2.2936565488159797 3.798736104177536 23.70886504326921 255 255 255
-0.09327693079924733 -0.6989232167644462 7.338464561951019 255 255 255
0.1820883003537405 -0.6144050918173155 7.460671469105568 255 255 255
-0.024625129593748546 -0.45325524778684884 7.340625367420477 255 255 255
0.7878716133594528 -0.504067100257359 7.93775913028395 255 255 255
0.32783923341821775 -0.6673403942375288 7.614953265918223 255 255 255
0.8024790624549631 -0.495001417202905 7.951581635526151 255 255 255
-0.13828524424205288 -0.6176344275406275 7.272853408473147 255 255 255
-0.024610890419740072 -0.45501763039116444 7.3898237059114695 255 255 255
-0.20504287170435542 -0.6916659483971179 7.269319153710386 255 255 255
0.17566113364809965 -0.6051644056239812 7.491350423146598 255 255 255
-0.2063476210896532 -0.26412093834790185 7.309365184410998 255 255 255
0.7655782998558468 -0.5020592010040004 7.912479826447776 255 255 255
1.679534492227357 0.11367183168963306 3.8557344728747367 255 255 255
-0.16206688863086788 -0.6634652148266934 7.295481743618094 255 255 255
0.2819588916970559 0.1742842117508535 7.877102663468439 255 255 255
0.27965098892766294 0.1753468592844206 7.892434195995637 255 255 255
0.446922477225954 -0.053086176424445915 8.00074043773353 255 255 255
0.5185884017388709 -1.0264900562083823 7.60902827356339 255 255 255
0.7890153230793969 0.3820036014954726 7.925068458835793 255 255 255
0.43964944168458675 0.17941986118975436 7.852989791585478 255 255 255
-0.2126280359715364 -0.2699574645809786 7.301131716812774 255 255 255
-0.06796556910465008 -0.5622155114059472 7.281719468664535 255 255 255
-0.7523174978089863 2.1185927434586307 -6.354729420515299 255 255 255
1.1346379161522975 1.366894584451434 4.147738931662755 255 255 255
1.7535013185051007 0.5502165559874356 31.59393251199387 255 255 255
1.8614835815014803 0.667579615998515 33.967174349396856 255 255 255
0.43589111077228015 0.17983437661550722 28.10607232619359 255 255 255
0.3649988416318119 0.12913771793053122 -0.9356690983798039 255 255 255
-0.3699436152633911 -1.4372092129626513 6.309877347629659 255 255 255
-0.3351250642158317 -1.4397873586988208 6.734650862865937 255 255 255
0.13978487539457782 0.2992708185808759 26.959865571450898 255 255 255
-0.5893054794889997 -24.429575113554797 -354.5325980366457 255 255 255
0.36163489906982477 0.08276057635448546 -0.8967181099196245 255 255 255
-0.029934490282905554 11.349226388489278 229.4344041495113 255 255 255
-0.05577228089855649 -0.026173501212561352 -0.14576870871568173 255 255 255
0.11813272455431606 -24.70412453458894 -370.0061161474187 255 255 255
3.004410477365115 0.8666314272798867 31.22459682519899 255 255 255
-0.033643014773823754 -0.4669277809766192 3.274873536588096 255 255 255
-0.0009620956053422816 -0.4282724662575619 3.287592841449883 255 255 255
0.1731916808716831 -0.3563703939901207 3.308205094881719 255 255 255
-0.15559224397249918 -0.5677135031068279 3.208430285563033 255 255 255
-0.1490279999682103 -0.5664514360986841 3.2135880081837653 255 255 255
0.1660148405962648 -0.5892086201184925 3.1933966465134174 255 255 255
-0.4361542420063958 0.656529650287084 1.7424600736209201 255 255 255
0.035501037563041224 -0.5420357002809116 3.207579047127346 255 255 255
0.1654615407086144 -0.5845084820653184 3.194722220991845 255 255 255
-0.09232970056174317 -0.5345080162119294 3.2243645998100776 255 255 255
0.159782367176725 -0.3495432463213173 3.304486644890184 255 255 255
-0.4481131821818173 -0.4254976105512242 3.3560714077557083 255 255 255
0.1753119427948018 -0.34933493845424773 3.2983973206742143 255 255 255
-0.05054936848767027 -0.5173794864027497 3.26026889006578 255 255 255
0.16587249624697945 -0.565038290643785 3.201818115889918 255 255 255
0.25524552284605256 0.30705054881658833 3.3090633021709026 255 255 255
0.5250869884860336 -0.040001587600771334 1.953652176885041 255 255 255
1.1189904169935527 -1.0131753607883918 8.52318924029687 255 255 255
1.1855211797404563 -0.5823991339862268 9.20625686898406 255 255 255
0.6410327265951914 -0.6806673434492568 7.766988049944523 255 255 255
0.4725452937355508 -0.6275751500712587 7.463730998781046 255 255 255
0.6903279931622102 -0.7780992196610117 7.788179247674339 255 255 255
1.1986838053093811 -0.5731495848447162 9.251077237510023 255 255 255
0.6507196125984875 -0.7080213610648456 7.777976803495116 255 255 255
0.3538766326826079 -0.6728125185005834 7.234705955538307 255 255 255
1.284581606406686 -0.5053593084586038 9.516389009379205 255 255 255
0.20045934800130194 -0.7091373885971135 6.8308304520784295 255 255 255
0.7009225044900429 -0.5815647011195911 8.359028797643786 255 255 255
1.1146655528795686 -0.9976128604914657 8.50517703144227 255 255 255
0.4086366909287302 -0.6275442545950785 7.37787583306256 255 255 255
-0.4806776622556093 -0.4209328203813771 4.12691083140138 255 255 255
0.5945323722774691 -0.9400869208299314 6.708415537619374 255 255 255
-0.5238039392906513 -0.4115196641690622 4.520885388021512 255 255 255
-0.5074173462990755 -0.39785722307639837 4.891338331503324 255 255 255
0.7576652364550572 -0.763861251734787 7.8703773884077615 255 255 255
1.1240437230454703 -0.9465060031796794 8.570344834416572 255 255 255
-5.954103534389267 1.8271644265779559 14.339625882429827 255 255 255
-0.5223728126515218 -0.40293962150908197 4.780433145189378 255 255 255
0.278434519667654 0.12097384632192196 -0.7346120540124774 255 255 255
0.43633813888673373 0.44264576341716677 -1.5160867782475924 255 255 255
-0.015714948531055806 -0.01690485357499987 -0.1037313671511054 255 255 255
1.776187563675663 -0.9706521596440995 8.762111815220951 255 255 255
-0.5795022012978212 -0.4170759501415477 4.564651520485479 255 255 255
