ply
format ascii 1.0
element vertex 86
property float x
property float y
property float z
property uchar red
property uchar green
property uchar blue
end_header
-5.280018988626492 0.3476519478184541 30.931614882476573 255 255 255
-3.486457018904046 -2.72594457547475 25.07384658957697 255 255 255
-4.834944934278645 0.5437232160938852 30.03512104104179 255 255 255
-4.568429640669293 0.247203290183669 29.997174788012412 255 255 255
-5.888692005755985 -0.047617806834075814 32.19777842876773 255 255 255
-4.653121421437546 -1.4616417691894565 27.82402884171449 255 255 255
-0.7245306804624456 0.01758385452205065 23.360067255962324 255 255 255
-2.339034492804958 -1.656157719279868 25.18381006211763 255 255 255
-5.882254327972852 0.10084106694741891 32.1951934634755 255 255 255
-3.085433645629818 -2.5258009099610956 24.744673918414 255 255 255
-3.7367168342293815 -2.1349853247414754 26.18770395397738 255 255 255
-2.343869285455316 -0.4703079467530965 26.485964651639982 255 255 255
-4.837012490378449 0.5258140084347481 29.951879669194202 255 255 255
-3.250742258484667 0.771756851684464 27.239904493459882 255 255 255
-7.544104352098199 -0.199956153435435 33.314185370192696 255 255 255
-4.408696391912971 -0.11168906454312552 29.1341781419808 255 255 255
-2.7597384646909524 -0.5934983484746732 26.687959813477327 255 255 255
-7.500799787836189 -0.09335012635427374 33.381165819126885 255 255 255
-3.450663799172016 1.2445383862151156 28.064956014652612 255 255 255
-2.4413487753030085 1.436618266615027 25.652106204073842 255 255 255
-3.391323685087797 1.2388520011261552 27.841340761454713 255 255 255
-2.546974241609969 -1.3327585641386803 25.735067000470835 255 255 255
-6.440462653625148 1.9459909447760528 32.751764515096646 255 255 255
-5.720592168368481 -3.0928208233702654 27.778590469727316 255 255 255
-6.575034644853185 -2.7909558516872437 29.397324958873924 255 255 255
-1.5052743114089413 -0.18333337241230438 24.70539421362187 255 255 255
-6.499641950618358 -1.9367713993889382 29.867410617705954 255 255 255
-8.090382678124836 -1.245596511153292 32.95119454997066 255 255 255
-5.686283457914202 2.2323459946606348 31.70351295994578 255 255 255
-3.9557372063524454 -1.4134895022684624 27.17794848030482 255 255 255
-3.7631909805015433 -3.603159990029279 24.916710132063336 255 255 255
-6.25123278751737 -0.2668225319846479 31.932285736409284 255 255 255
-6.560195277349963 -2.7858815204188176 29.125156962481 255 255 255
-4.622482153486004 -1.4701697120308759 27.608669980127633 255 255 255
-6.785658173891078 -0.12251147406509709 32.62268066852261 255 255 255
-2.377636572167648 1.47055353631526 25.397034910343994 255 255 255
-7.379330937293657 -0.9012644087688434 32.02909408441136 255 255 255
-2.39566365931108 -0.4423199687969642 26.244307711879646 255 255 255
-7.333732631404642 2.125022866228877 34.21564959583385 255 255 255
-2.108815278093164 -0.061705755036006525 25.709095937177338 255 255 255
-6.013957825778187 3.9627657052792804 36.39538654826935 255 255 255
-3.264127057739493 -1.1853551102471256 26.503164159079233 255 255 255
-7.51392987369778 -2.6627149312221894 29.350654678865055 255 255 255
-2.9678406242547526 -1.5212662359149691 25.751507662024732 255 255 255
-3.789384700312962 -4.176317404487948 24.82931227808515 255 255 255
-7.081645607957052 -3.459952188120714 29.334718428902544 255 255 255
-3.5983807197326225 -3.7113726171249666 24.632465816303583 255 255 255
-7.287827317401574 2.183171600304964 33.92100000048186 255 255 255
-4.654223928881971 2.3070223824894787 31.503698511021774 255 255 255
-7.221854314574329 3.0944794581508495 34.65908778275953 255 255 255
-3.2007327752555015 -0.8673216751115617 26.992522622204653 255 255 255
-6.444195360333873 -3.5369233105822815 28.41332727543248 255 255 255
-6.467676820524478 -1.0533122690045253 30.89948124808954 255 255 255
-4.666759784659153 -0.28161225660106715 29.495353747557786 255 255 255
-3.483322967874362 -3.6948478237122293 24.382924775639257 255 255 255
-5.9199630104432135 -0.35402250477796443 31.300305913660328 255 255 255
-3.0918442365892673 -0.9423167662884219 26.211771326702028 255 255 255
-5.052406149950865 1.257930905904348 30.560519133611184 255 255 255
-4.4924456026397825 -4.281038133362437 25.83498304722471 255 255 255
-3.970617330652303 -1.4713838474718735 27.29903325172567 255 255 255
-5.747793738277554 3.973913044706166 35.509326336093615 255 255 255
-3.483055985046496 0.11876122677151713 28.184145466486537 255 255 255
-1.9789596789174873 1.298893564672913 25.285429208972253 255 255 255
-7.240986424037304 3.061690075102623 34.682172500428976 255 255 255
-6.565711906312236 -3.5919232933697636 28.629368739267626 255 255 255
-6.705262763052791 -0.15707909168404677 32.61524211799567 255 255 255
-6.40594283298209 -1.0779780216976729 30.67111137347046 255 255 255
-5.0600966027184935 2.7478514792886863 31.716809406831644 255 255 255
-2.4169950166436425 -0.9980952863863433 26.466716567189824 255 255 255
-6.594076948310396 -3.1864729772961695 28.865263856757895 255 255 255
-1.5771276864217199 -0.5312239602633674 24.99613561135092 255 255 255
4.3521862183170335 5.002504180668286 19.718328476154134 255 255 255
-1.28888274202804 -5.402394700754573 24.41741454561264 255 255 255
-4.237808512100175 0.9974489011070471 26.176005644492548 255 255 255
-1.1131104160916736 -5.3822303147491315 23.99248070032376 255 255 255
-7.878959098056137 -1.7276772534429814 31.60815011657456 255 255 255
-8.553655772498608 4.576521932370584 40.566374714391394 255 255 255
35.316342232364455 -36.51463479037895 -121.54711420267026 255 255 255
-2.8009290266459956 -2.2481411184008384 24.80560044167112 255 255 255
-5.1769528849756865 -0.2674271074554744 28.648736332250188 255 255 255
3.801490708167476 4.354035397894028 18.226484199338312 255 255 255
-4.8440041441202615 -0.37697597587725773 29.40413222326219 255 255 255
-5.753676348904159 2.2951634395995 31.87501093945736 255 255 255
-7.325059549595307 -2.7311097073334305 29.383234848899775 255 255 255
-6.7708750348536935 2.5895256721039144 33.64265284303787 255 255 255
-4.811447738614358 2.4712160704593353 31.281010468374674 255 255 255
