ply
format ascii 1.0
element vertex 103
property float x
property float y
property float z
property uchar red
property uchar green
property uchar blue
end_header
-0.021684334993162677 0.02851945378102273 -0.9974246977819601 255 255 255
0.007448739995399705 0.12151665052119576 -0.9918504173825121 255 255 255
-0.02861002945626102 0.03003170509705625 -0.9973265266939472 255 255 255
-0.02763119867860543 0.024296952861853113 -0.9973695712679544 255 255 255
0.04285879980305691 0.02357561355056069 -0.9982173503183746 255 255 255
0.009445302396229576 0.12697549198634756 -0.9910984710930837 255 255 255
-0.019938633496291446 0.029960852817428163 -0.9972404839795364 255 255 255
0.04836643600835857 0.028929112786962828 -0.9981366254283726 255 255 255
0.014701330234340736 0.13311441392929596 -0.9903456357724483 255 255 255
-0.021163347809545267 0.028997311603745832 -0.9973622366581821 255 255 255
0.06475425023731608 0.030413069391608268 -0.9972317929545674 255 255 255
0.01135277523485196 0.13039959230740183 -0.990675510669513 255 255 255
0.01917783533259818 0.06995480229430191 -0.9965216989205243 255 255 255
0.07666819340841262 0.04605587350689553 -0.9959461793287486 255 255 255
0.042782531271050826 0.023141066345813473 -0.9982103692551325 255 255 255
0.08479482063206581 0.06017208116015211 -0.9935835106615282 255 255 255
0.06857028250356835 0.036994913399813915 -0.9964060879068884 255 255 255
0.08416492316372812 0.056098828014557026 -0.994215329923682 255 255 255
0.07645250546596884 0.04673607134047677 -0.9958897804880279 255 255 255
0.015126479218106805 0.07513738117567463 -0.9967887236300585 255 255 255
-0.01788778001703794 0.029332288453952297 -0.9973675299921474 255 255 255
-0.03220448792523622 0.025614480995985133 -0.9973576656972463 255 255 255
0.006448202627814809 0.11483450392476034 -0.9923051432852235 255 255 255
0.06833543097191813 0.037988793169002964 -0.9967721054119676 255 255 255
-0.030240485987068542 0.02504188918915031 -0.9973159858612537 255 255 255
0.018718726461495135 0.13085307522117534 -0.9907893579510203 255 255 255
0.025602662760147325 0.12038237687226354 -0.9907971341857496 255 255 255
-0.0018705188294687325 0.07226977578928441 -0.9970152569934243 255 255 255
-0.024844023614914744 0.04431520333968796 -0.9961931898138666 255 255 255
-0.006046272093778244 0.07393041390201015 -0.9969082946101332 255 255 255
0.05714624765126832 0.02729690165693265 -0.9978835720031894 255 255 255
0.022889665627508774 0.02344644401413948 -0.9992069184335056 255 255 255
0.02408247529428032 0.12430201798205812 -0.991666955015535 255 255 255
0.06524097828301635 0.030037471675579647 -0.9972383711939109 255 255 255
0.08023934063993542 0.07152346022300775 -0.9942061399034189 255 255 255
-0.029401781524236014 0.03002885203918184 -0.99734056524945 255 255 255
0.06383360776676594 0.022711860583234555 -0.9976484612843054 255 255 255
0.054981852703712454 0.027279719483180344 -0.9979783968138526 255 255 255
0.07456995106547343 0.06487425981310418 -0.9934898489974228 255 255 255
0.07568086973076697 0.049100142243458884 -0.9957029290236544 255 255 255
0.011546782990794802 0.020805771874690456 -0.9993939121787768 255 255 255
0.08387843475991232 0.04815289046926454 -0.9948446662416867 255 255 255
0.0491184547195205 0.08686507579491035 -0.9746225988154386 255 255 255
-0.030895455325792423 0.03745444291989231 -0.9968400265663335 255 255 255
0.0041873427022175455 0.10447828902787096 -0.9938762901555679 255 255 255
-0.0006089742430466349 0.055626733361397285 -0.9984239420340479 255 255 255
0.0067084560562265085 0.09448613655439711 -0.9947510211604959 255 255 255
0.022688395978778465 0.07726778507086207 -0.9939326442028211 255 255 255
0.029707234095323536 0.12338482703220738 -0.9904869051386771 255 255 255
0.06692484384765232 0.08870691450777449 -0.984836806464691 255 255 255
-0.024299593573612298 0.053811407110817056 -0.9940353735763408 255 255 255
0.02310358866200882 0.023562148928521556 -0.999248108979138 255 255 255
-0.010094627470399032 0.06257330998157605 -0.9940172240863724 255 255 255
0.0054821613272689005 0.09559444487983111 -0.9945571355966273 255 255 255
0.01652370860518915 0.11450660016886875 -0.9921921226974819 255 255 255
-0.03244211772149311 0.04459243378475293 -0.9962659878350615 255 255 255
0.058025386366454434 0.02700821791250824 -0.997842782597594 255 255 255
0.019131045697491866 0.08789472921814336 -0.995945707951924 255 255 255
0.0002644913286176872 0.07110148707927348 -0.9970906084899601 255 255 255
0.06644883990740082 0.0289969991964202 -0.9972640182457396 255 255 255
0.05015567247987425 0.08063636583309831 -0.9161475089317561 255 255 255
0.09248124851685142 0.07463079605327637 -0.990812607487129 255 255 255
0.08784022755302676 0.06568471808079818 -0.9926326390465081 255 255 255
0.009902574663649633 0.09416943627994684 -0.9949596469289193 255 255 255
0.03981154322397408 0.10695918453779225 -0.9923042616779242 255 255 255
-0.03007553744250002 0.044194980422898794 -0.996223958017 255 255 255
0.0018963994161113132 0.06970852025835939 -0.9970079980890191 255 255 255
0.025756876978136885 0.02330498164244905 -0.9986652456894856 255 255 255
-0.03190255514336285 0.053897829836579064 -0.9942694631982297 255 255 255
-0.000297052767740639 0.09744234529300269 -0.9947629738342253 255 255 255
0.06345734062839078 0.10581383993439623 -0.989996665910436 255 255 255
0.015058568983395084 0.1282956267372446 -0.9908926849375645 255 255 255
0.0627997025908589 0.10793406527190304 -0.9903401153557196 255 255 255
0.0755840847406216 0.0400245634799322 -0.996251079007013 255 255 255
-0.023660516076067832 0.052309281733237886 -0.9946453772907378 255 255 255
0.0020667293033551533 0.10511459061886999 -0.9940075609640949 255 255 255
-0.010251687385701496 0.0643850256949417 -0.9978458721312596 255 255 255
0.07186126898564771 0.025047349738944017 -0.9970794264376136 255 255 255
-0.03693600813103874 0.04067788843158629 -0.996568647723165 255 255 255
-0.03492308369055324 0.045413008730192043 -0.9962265142110309 255 255 255
0.07103407167544899 0.03907811363412128 -0.9966220318554528 255 255 255
0.01722696658501824 0.1114109574951492 -0.9923215843226745 255 255 255
0.0627328195220461 0.07118786846292328 -0.9951029191687382 255 255 255
0.08756843696222319 0.07886756794977665 -0.9898968154390007 255 255 255
0.056880624347165426 0.11367308006251302 -0.9917948811840912 255 255 255
0.07281776761774325 0.08011235086532494 -0.9926739359483095 255 255 255
0.05267050956272868 0.026573215477924128 -0.9980645299084793 255 255 255
0.05143201791694235 0.08755603749288186 -0.8853830130869713 255 255 255
0.0034366759572239504 0.11756271821912422 -0.9923563702366125 255 255 255
0.012485668490133347 0.07616940637106659 -0.9966424233785459 255 255 255
0.06862331985741833 0.07995456797309262 -0.9921222873648136 255 255 255
0.05811076309187232 0.10515013968821856 -0.9850888872763455 255 255 255
-0.0003152690871796382 0.09434618523111322 -0.9953179802713579 255 255 255
0.07508484341736471 0.06521566273836919 -0.9933396982762239 255 255 255
0.041230733183932014 0.10435018373511866 -0.9837418653650708 255 255 255
0.054780810013407004 0.08424234794315995 -0.9947441688247801 255 255 255
-0.00040961437253392833 0.06263977142821947 -0.9942038602886943 255 255 255
-0.04742289951954927 -0.0021832776151796914 -0.9988703030271118 255 255 255
0.041736708669006334 0.1041853113590683 -0.9809512672840237 255 255 255
0.05717485492812904 0.08395900932976233 -0.9948234352742008 255 255 255
-0.1956511154261128 0.1721048231185897 -0.9394819538229725 255 255 255
0.021176952826810782 0.07341840185366802 -0.7413226581202168 255 255 255
-0.2001986234684838 0.178729415890475 -0.9528293030044584 255 255 255
